<?xml version="1.0" encoding="UTF-8" standalone="no"?>
<!-- Created with Inkscape (http://www.inkscape.org/) -->

<svg
   xmlns:dc="http://purl.org/dc/elements/1.1/"
   xmlns:cc="http://creativecommons.org/ns#"
   xmlns:rdf="http://www.w3.org/1999/02/22-rdf-syntax-ns#"
   xmlns:svg="http://www.w3.org/2000/svg"
   xmlns="http://www.w3.org/2000/svg"
   xmlns:sodipodi="http://sodipodi.sourceforge.net/DTD/sodipodi-0.dtd"
   xmlns:inkscape="http://www.inkscape.org/namespaces/inkscape"
   width="342"
   height="207"
   id="svg2"
   sodipodi:version="0.32"
   inkscape:version="0.48.5 r10040"
   version="1.0"
   sodipodi:docname="Oscillator_phase_portrait.svg"
   inkscape:output_extension="org.inkscape.output.svg.inkscape">
  <sodipodi:namedview
     id="base"
     pagecolor="#ffffff"
     bordercolor="#666666"
     borderopacity="1.0"
     gridtolerance="10000"
     guidetolerance="10"
     objecttolerance="10"
     inkscape:pageopacity="0.0"
     inkscape:pageshadow="2"
     inkscape:zoom="1.6555555"
     inkscape:cx="167.86908"
     inkscape:cy="99.95505"
     inkscape:document-units="in"
     inkscape:current-layer="layer1"
     showgrid="true"
     units="in"
     inkscape:snap-center="true"
     inkscape:window-width="1080"
     inkscape:window-height="733"
     inkscape:window-x="198"
     inkscape:window-y="27"
     inkscape:window-maximized="0" />
  <defs
     id="defs4">
    <marker
       inkscape:stockid="Arrow1Mend"
       orient="auto"
       refY="0"
       refX="0"
       id="Arrow1Mend"
       style="overflow:visible">
      <path
         id="path4613"
         d="M 0,0 L 5,-5 L -12.5,0 L 5,5 L 0,0 z"
         style="fill-rule:evenodd;stroke:#000000;stroke-width:1pt;marker-start:none"
         transform="matrix(-0.4,0,0,-0.4,-4,0)" />
    </marker>
    <marker
       inkscape:stockid="Arrow1Mstart"
       orient="auto"
       refY="0"
       refX="0"
       id="Arrow1Mstart"
       style="overflow:visible">
      <path
         id="path4610"
         d="M 0,0 L 5,-5 L -12.5,0 L 5,5 L 0,0 z"
         style="fill-rule:evenodd;stroke:#000000;stroke-width:1pt;marker-start:none"
         transform="matrix(0.4,0,0,0.4,4,0)" />
    </marker>
    <marker
       inkscape:stockid="Arrow2Mstart"
       orient="auto"
       refY="0"
       refX="0"
       id="Arrow2Mstart"
       style="overflow:visible">
      <path
         id="path4628"
         style="font-size:12px;fill-rule:evenodd;stroke-width:0.625;stroke-linejoin:round"
         d="M 8.7185878,4.0337352 L -2.2072895,0.016013256 L 8.7185884,-4.0017078 C 6.97309,-1.6296469 6.9831476,1.6157441 8.7185878,4.0337352 z"
         transform="scale(0.6,0.6)" />
    </marker>
    <marker
       inkscape:stockid="Arrow1Lstart"
       orient="auto"
       refY="0"
       refX="0"
       id="Arrow1Lstart"
       style="overflow:visible">
      <path
         id="path4604"
         d="M 0,0 L 5,-5 L -12.5,0 L 5,5 L 0,0 z"
         style="fill-rule:evenodd;stroke:#000000;stroke-width:1pt;marker-start:none"
         transform="matrix(0.8,0,0,0.8,10,0)" />
    </marker>
    <inkscape:perspective
       sodipodi:type="inkscape:persp3d"
       inkscape:vp_x="0 : 526.18109 : 1"
       inkscape:vp_y="0 : 1000 : 0"
       inkscape:vp_z="744.09448 : 526.18109 : 1"
       inkscape:persp3d-origin="372.04724 : 350.78739 : 1"
       id="perspective10" />
  </defs>
  <metadata
     id="metadata7">
    <rdf:RDF>
      <cc:Work
         rdf:about="">
        <dc:format>image/svg+xml</dc:format>
        <dc:type
           rdf:resource="http://purl.org/dc/dcmitype/StillImage" />
      </cc:Work>
    </rdf:RDF>
  </metadata>
  <g
     inkscape:label="Layer 1"
     inkscape:groupmode="layer"
     id="layer1"
     transform="translate(-3.6328125,-108.97654)">
    <path
       sodipodi:type="arc"
       style="opacity:1;fill:#ffffff;fill-opacity:1;fill-rule:evenodd;stroke:#000000;stroke-width:1.79999995;stroke-linecap:butt;stroke-linejoin:miter;marker-start:url(#Arrow2Mstart);marker-mid:url(#Arrow2Mstart);marker-end:none;stroke-miterlimit:4.5;stroke-dasharray:none;stroke-opacity:1"
       id="path2393"
       sodipodi:cx="180"
       sodipodi:cy="180"
       sodipodi:rx="90"
       sodipodi:ry="45"
       d="m 270,180 c 0,24.85281 -40.29437,45 -90,45 -49.70563,0 -90,-20.14719 -90,-45 0,-24.85281 40.29437,-45 90,-45 49.70563,0 90,20.14719 90,45 z"
       transform="matrix(1,0,0,-1,0,385.62669)" />
    <path
       d="m 270,180 c 0,24.85281 -40.29437,45 -90,45 -49.70563,0 -90,-20.14719 -90,-45 0,-24.85281 40.29437,-45 90,-45 49.70563,0 90,20.14719 90,45 z"
       sodipodi:ry="45"
       sodipodi:rx="90"
       sodipodi:cy="180"
       sodipodi:cx="180"
       id="path10068"
       style="opacity:1;fill:#ffffff;fill-opacity:1;fill-rule:evenodd;stroke:#000000;stroke-width:1.79999995;stroke-linecap:butt;stroke-linejoin:miter;marker-start:url(#Arrow2Mstart);marker-mid:url(#Arrow2Mstart);marker-end:none;stroke-miterlimit:4.5;stroke-dasharray:none;stroke-opacity:1"
       sodipodi:type="arc"
       transform="matrix(1.44,0,0,-1.44,-79.2,464.82669)" />
    <path
       style="fill:#ffffff;fill-opacity:1;fill-rule:evenodd;stroke:#000000;stroke-width:1.77556812999999991;stroke-linecap:butt;stroke-linejoin:miter;stroke-miterlimit:4.50000000000000000;stroke-opacity:1;marker-start:url(#Arrow1Mstart);marker-mid:url(#Arrow2Mstart);marker-end:none"
       d="M 259.94684,159.32298 C 264.1948,163.41811 267.22098,167.88039 268.7835,172.58886 M 225.86075,218.72137 C 218.13897,221.01389 209.67402,222.74545 200.6911,223.80344 M 264.75782,195.16114 C 261.15294,200.19411 255.80484,204.81342 249.07791,208.83687"
       id="path2405"
       sodipodi:nodetypes="cscscs"
       transform="matrix(1.01376,0,0,-1.01376,-2.4768,388.10349)" />
    <path
       d="m 270,180 c 0,24.85281 -40.29437,45 -90,45 -49.70563,0 -90,-20.14719 -90,-45 0,-24.85281 40.29437,-45 90,-45 49.70563,0 90,20.14719 90,45 z"
       sodipodi:ry="45"
       sodipodi:rx="90"
       sodipodi:cy="180"
       sodipodi:cx="180"
       id="path10072"
       style="opacity:1;fill:#ffffff;fill-opacity:1;fill-rule:evenodd;stroke:#000000;stroke-width:1.79999995;stroke-linecap:butt;stroke-linejoin:miter;marker-start:url(#Arrow2Mstart);marker-mid:url(#Arrow2Mstart);marker-end:none;stroke-miterlimit:4.5;stroke-dasharray:none;stroke-opacity:1"
       sodipodi:type="arc"
       transform="matrix(0.69444,0,0,-0.69444,55.0008,330.62589)" />
    <path
       sodipodi:type="arc"
       style="opacity:1;fill:#ffffff;fill-opacity:1;stroke:#000000;stroke-width:0.96100205;stroke-miterlimit:4.5;stroke-dasharray:0.96100207, 1.92200413;stroke-dashoffset:0;stroke-opacity:1"
       id="path10098"
       sodipodi:cx="183.62416"
       sodipodi:cy="217.75168"
       sodipodi:rx="6.0402684"
       sodipodi:ry="3.3221476"
       d="m 189.66443,217.75168 c 0,1.83477 -2.70432,3.32215 -6.04027,3.32215 -3.33595,0 -6.04027,-1.48738 -6.04027,-3.32215 0,-1.83477 2.70432,-3.32215 6.04027,-3.32215 3.33595,0 6.04027,1.48738 6.04027,3.32215 z"
       transform="matrix(1.4971666,0,0,-1.1381786,-84.717779,407.78623)" />
    <path
       sodipodi:type="arc"
       style="opacity:1;fill:#ffffff;fill-opacity:1;stroke:#000000;stroke-width:1.08000004;stroke-miterlimit:4.5;stroke-dasharray:1.08, 2.16;stroke-dashoffset:0;stroke-opacity:1"
       id="path10100"
       sodipodi:cx="254.59732"
       sodipodi:cy="182.11409"
       sodipodi:rx="6.9463086"
       sodipodi:ry="8.7583895"
       d="m 261.54363,182.11409 c 0,4.83712 -3.10997,8.75839 -6.94631,8.75839 -3.83634,0 -6.94631,-3.92127 -6.94631,-8.75839 0,-4.83712 3.10997,-8.75839 6.94631,-8.75839 3.83634,0 6.94631,3.92127 6.94631,8.75839 z"
       transform="matrix(1.1615578,0,0,-1.1615578,-25.196739,412.8771)" />
    <path
       sodipodi:type="arc"
       style="opacity:1;fill:#ffffff;fill-opacity:1;stroke:#000000;stroke-width:1.14959013;stroke-miterlimit:4.5;stroke-dasharray:1.14959018, 2.29918037;stroke-dashoffset:0;stroke-opacity:1"
       id="path10102"
       sodipodi:cx="224.39597"
       sodipodi:cy="213.52348"
       sodipodi:rx="9.9664431"
       sodipodi:ry="4.5302014"
       d="m 234.36241,213.52348 c 0,2.50196 -4.46213,4.5302 -9.96644,4.5302 -5.50432,0 -9.96645,-2.02824 -9.96645,-4.5302 0,-2.50196 4.46213,-4.5302 9.96645,-4.5302 5.50431,0 9.96644,2.02824 9.96644,4.5302 z"
       transform="matrix(1.0005516,0.2318215,0.2029048,-1.1431434,-29.586132,362.5383)" />
    <path
       sodipodi:type="arc"
       style="opacity:1;fill:#ffffff;fill-opacity:1;stroke:#000000;stroke-width:1.08000004;stroke-miterlimit:4.5;stroke-dasharray:1.08, 2.16;stroke-dashoffset:0;stroke-opacity:1"
       id="path10104"
       sodipodi:cx="231.9463"
       sodipodi:cy="153.72484"
       sodipodi:rx="14.496644"
       sodipodi:ry="10.57047"
       d="m 246.44295,153.72484 c 0,5.83791 -6.49037,10.57047 -14.49665,10.57047 -8.00627,0 -14.49664,-4.73256 -14.49664,-10.57047 0,-5.83791 6.49037,-10.57047 14.49664,-10.57047 8.00628,0 14.49665,4.73256 14.49665,10.57047 z"
       transform="matrix(1.1127099,-0.3333066,-0.3333066,-1.1127099,37.370862,482.67719)" />
    <path
       transform="matrix(0.4822469,0,0,-0.4822469,93.195556,292.43114)"
       sodipodi:type="arc"
       style="opacity:1;fill:#ffffff;fill-opacity:1;fill-rule:evenodd;stroke:#000000;stroke-width:1.79999995;stroke-linecap:butt;stroke-linejoin:miter;marker-start:url(#Arrow2Mstart);marker-mid:url(#Arrow2Mstart);marker-end:none;stroke-miterlimit:4.5;stroke-dasharray:none;stroke-opacity:1"
       id="path10074"
       sodipodi:cx="180"
       sodipodi:cy="180"
       sodipodi:rx="90"
       sodipodi:ry="45"
       d="m 270,180 c 0,24.85281 -40.29437,45 -90,45 -49.70563,0 -90,-20.14719 -90,-45 0,-24.85281 40.29437,-45 90,-45 49.70563,0 90,20.14719 90,45 z" />
    <path
       d="m 270,180 c 0,24.85281 -40.29437,45 -90,45 -49.70563,0 -90,-20.14719 -90,-45 0,-24.85281 40.29437,-45 90,-45 49.70563,0 90,20.14719 90,45 z"
       sodipodi:ry="45"
       sodipodi:rx="90"
       sodipodi:cy="180"
       sodipodi:cx="180"
       id="path10076"
       style="opacity:1;fill:#ffffff;fill-opacity:1;fill-rule:evenodd;stroke:#000000;stroke-width:1.79999995;stroke-linecap:butt;stroke-linejoin:miter;marker-start:url(#Arrow2Mstart);marker-mid:url(#Arrow2Mstart);marker-end:none;stroke-miterlimit:4.5;stroke-dasharray:none;stroke-opacity:1"
       sodipodi:type="arc"
       transform="matrix(0.3348915,0,0,-0.3348915,119.71952,265.90717)" />
    <g
       id="g3029"
       transform="matrix(2.0486042,0,0,2.0486042,-160.08907,-64.909357)">
      <g
         id="content"
         transform="matrix(0.29571429,0,0,-0.29571429,-51.75,256.5)"
         xml:space="preserve"
         stroke-miterlimit="10.433"
         font-style="normal"
         font-variant="normal"
         font-weight="normal"
         font-stretch="normal"
         font-size-adjust="none"
         letter-spacing="normal"
         word-spacing="normal"
         style="font-style:normal;font-variant:normal;font-weight:normal;font-stretch:normal;letter-spacing:normal;word-spacing:normal;text-anchor:start;fill:none;stroke:#000000;stroke-linecap:butt;stroke-linejoin:miter;stroke-miterlimit:10.43299961;stroke-opacity:1;stroke-dasharray:none;stroke-dashoffset:0"><path
           d="m 478.04,427.67 -0.01,0.02 0,0.02 0,0.02 0,0.02 -0.01,0.02 0,0.02 -0.01,0.02 0,0.02 -0.01,0.02 -0.01,0.02 -0.01,0.02 -0.01,0.03 -0.01,0.02 -0.01,0.02 -0.02,0.02 -0.01,0.01 -0.02,0.02 -0.01,0.02 -0.02,0.02 -0.02,0.01 -0.02,0.02 -0.02,0.01 -0.02,0.02 -0.03,0.01 -0.02,0.01 -0.03,0.01 -0.02,0.01 -0.03,0 -0.03,0.01 -0.03,0 -0.03,0.01 -0.02,0 -0.01,0 c -0.55,0 -2.54,-1.99 -3.38,-3.44 -1.11,2.69 -3.05,3.48 -4.64,3.48 v -1.09 c 3.23,0 3.94,-4.03 3.94,-4.37 0,-0.32 -2.74,-11.22 -2.89,-11.43 -0.75,-1.39 -3.53,-4.57 -6.33,-4.57 h 0 c -2.99,0 -3.19,3.84 -3.19,4.68 0,2.39 1.44,7.82 2.3,9.91 1.53,3.69 4.12,5.78 6.17,5.78 v 1.09 c -5.88,0 -12,-7.37 -12,-14.59 0,-4.87 2.94,-7.97 6.56,-7.97 2.16,0 4.1,1.19 5.89,2.99 -0.45,-1.74 -2.09,-8.47 -2.25,-8.93 -0.39,-1.39 -0.79,-1.59 -3.58,-1.64 -0.65,0 -1.15,0 -1.15,-1 0,-0.04 0,-0.54 0.65,-0.54 1.6,0 3.33,0.15 4.99,0.15 1.69,0 3.48,-0.15 5.12,-0.15 0.25,0 0.89,0 0.89,1 0,0.54 -0.48,0.54 -1.28,0.54 -2.4,0 -2.4,0.36 -2.4,0.8 0,0.36 0.11,0.66 0.2,1.09 z"
           id="path3032"
           inkscape:connector-curvature="0"
           style="fill:#000000;stroke-width:0" /><path
           d="m 495.31,405.11 h -1.19 c -0.09,-0.77 -0.45,-2.83 -0.9,-3.18 -0.27,-0.2 -2.95,-0.2 -3.44,-0.2 h -6.42 c 3.66,3.23 4.87,4.2 6.97,5.84 2.58,2.07 4.98,4.22 4.98,7.54 0,4.21 -3.69,6.79 -8.15,6.79 -4.32,0 -7.25,-3.03 -7.25,-6.23 0,-1.78 1.5,-1.96 1.86,-1.96 0.82,0 1.84,0.6 1.84,1.85 0,0.62 -0.25,1.84 -2.06,1.84 1.07,2.47 3.45,3.24 5.09,3.24 3.48,0 5.3,-2.71 5.3,-5.53 0,-3.04 -2.16,-5.44 -3.28,-6.69 l -8.39,-8.3 c -0.36,-0.31 -0.36,-0.39 -0.36,-1.36 h 14.36 z"
           id="path3034"
           inkscape:connector-curvature="0"
           style="fill:#000000;stroke-width:0" /></g>    </g>
    <g
       id="g3090"
       transform="matrix(2.0486042,0,0,2.0486042,3.6022019,21.466483)">
      <g
         word-spacing="normal"
         letter-spacing="normal"
         font-size-adjust="none"
         font-stretch="normal"
         font-weight="normal"
         font-variant="normal"
         font-style="normal"
         stroke-miterlimit="10.433"
         xml:space="preserve"
         transform="matrix(0.29571429,0,0,-0.29571429,-51.75,256.5)"
         id="g3092"
         style="font-style:normal;font-variant:normal;font-weight:normal;font-stretch:normal;letter-spacing:normal;word-spacing:normal;text-anchor:start;fill:none;stroke:#000000;stroke-linecap:butt;stroke-linejoin:miter;stroke-miterlimit:10.43299961;stroke-opacity:1;stroke-dasharray:none;stroke-dashoffset:0"><path
           id="path3094"
           d="m 478.04,427.67 -0.01,0.02 0,0.02 0,0.02 0,0.02 -0.01,0.02 0,0.02 -0.01,0.02 0,0.02 -0.01,0.02 -0.01,0.02 -0.01,0.02 -0.01,0.03 -0.01,0.02 -0.01,0.02 -0.02,0.02 -0.01,0.01 -0.02,0.02 -0.01,0.02 -0.02,0.02 -0.02,0.01 -0.02,0.02 -0.02,0.01 -0.02,0.02 -0.03,0.01 -0.02,0.01 -0.03,0.01 -0.02,0.01 -0.03,0 -0.03,0.01 -0.03,0 -0.03,0.01 -0.02,0 -0.01,0 c -0.55,0 -2.54,-1.99 -3.38,-3.44 -1.11,2.69 -3.05,3.48 -4.64,3.48 v -1.09 c 3.23,0 3.94,-4.03 3.94,-4.37 0,-0.32 -2.74,-11.22 -2.89,-11.43 -0.75,-1.39 -3.53,-4.57 -6.33,-4.57 h 0 c -2.99,0 -3.19,3.84 -3.19,4.68 0,2.39 1.44,7.82 2.3,9.91 1.53,3.69 4.12,5.78 6.17,5.78 v 1.09 c -5.88,0 -12,-7.37 -12,-14.59 0,-4.87 2.94,-7.97 6.56,-7.97 2.16,0 4.1,1.19 5.89,2.99 -0.45,-1.74 -2.09,-8.47 -2.25,-8.93 -0.39,-1.39 -0.79,-1.59 -3.58,-1.64 -0.65,0 -1.15,0 -1.15,-1 0,-0.04 0,-0.54 0.65,-0.54 1.6,0 3.33,0.15 4.99,0.15 1.69,0 3.48,-0.15 5.12,-0.15 0.25,0 0.89,0 0.89,1 0,0.54 -0.48,0.54 -1.28,0.54 -2.4,0 -2.4,0.36 -2.4,0.8 0,0.36 0.11,0.66 0.2,1.09 z"
           inkscape:connector-curvature="0"
           style="fill:#000000;stroke-width:0" /><path
           id="path3096"
           d="m 489.39,420.92 0,0.04 0,0.04 0,0.05 0,0.04 0,0.03 0,0.04 0,0.04 0,0.03 -0.01,0.04 0,0.03 0,0.03 0,0.03 0,0.03 -0.01,0.03 0,0.03 0,0.02 -0.01,0.03 0,0.02 -0.01,0.03 0,0.02 -0.02,0.04 -0.01,0.04 -0.02,0.03 -0.02,0.03 -0.02,0.03 -0.02,0.03 -0.03,0.02 -0.03,0.02 -0.04,0.02 -0.03,0.01 -0.04,0.01 -0.05,0.02 -0.02,0 -0.03,0 -0.02,0.01 -0.03,0 -0.02,0.01 -0.03,0 -0.03,0 -0.03,0 -0.04,0 -0.03,0.01 -0.03,0 -0.04,0 -0.04,0 -0.03,0 -0.04,0 -0.04,0 -0.04,0 -0.05,0 -0.04,0 -0.05,0 c -2.23,-2.2 -5.39,-2.23 -6.82,-2.23 v -1.25 c 0.84,0 3.14,0 5.04,0.97 v -17.77 c 0,-1.16 0,-1.61 -3.48,-1.61 h -1.31 v -1.25 c 0.62,0.03 4.9,0.14 6.2,0.14 1.08,0 5.47,-0.11 6.23,-0.14 v 1.25 h -1.32 c -3.49,0 -3.49,0.45 -3.49,1.61 z"
           inkscape:connector-curvature="0"
           style="fill:#000000;stroke-width:0" /></g>    </g>
  </g>
</svg>
